<svg xmlns="http://www.w3.org/2000/svg" xmlns:xlink="http://www.w3.org/1999/xlink" version="1.1" x="0px" y="0px" viewBox="0 0 96 120" enable-background="new 0 0 96 96" fill="white" xml:space="preserve"><g><path d="M62.142,35.858c0.512,0,1.024-0.195,1.414-0.586l2.829-2.829c0.781-0.781,0.781-2.047,0-2.828   c-0.781-0.781-2.048-0.781-2.828,0l-2.829,2.829c-0.781,0.781-0.781,2.047,0,2.828C61.118,35.663,61.63,35.858,62.142,35.858z    M30,48c0-1.104-0.896-2-2-2h-4c-1.104,0-2,0.896-2,2s0.896,2,2,2h4C29.104,50,30,49.104,30,48z M32.444,60.728l-2.829,2.829   c-0.781,0.781-0.781,2.047,0,2.828c0.39,0.391,0.902,0.586,1.414,0.586c0.512,0,1.024-0.195,1.414-0.586l2.829-2.829   c0.781-0.781,0.781-2.047,0-2.828C34.492,59.947,33.224,59.947,32.444,60.728z M32.444,35.272c0.39,0.391,0.902,0.586,1.414,0.586   s1.024-0.195,1.414-0.586c0.781-0.781,0.781-2.047,0-2.828l-2.829-2.829c-0.78-0.781-2.048-0.781-2.828,0   c-0.781,0.781-0.781,2.047,0,2.828L32.444,35.272z M48,30c1.104,0,2-0.896,2-2v-4c0-1.104-0.896-2-2-2s-2,0.896-2,2v4   C46,29.104,46.896,30,48,30z M72,46h-4c-1.104,0-2,0.896-2,2s0.896,2,2,2h4c1.104,0,2-0.896,2-2S73.104,46,72,46z M63.556,60.728   c-0.78-0.781-2.048-0.781-2.828,0c-0.781,0.781-0.781,2.047,0,2.828l2.829,2.829c0.39,0.391,0.902,0.586,1.414,0.586   c0.512,0,1.023-0.195,1.414-0.586c0.781-0.781,0.781-2.047,0-2.828L63.556,60.728z M48,66c-1.104,0-2,0.896-2,2v4   c0,1.104,0.896,2,2,2s2-0.896,2-2v-4C50,66.896,49.104,66,48,66z M48,34c-7.72,0-14,6.28-14,14s6.28,14,14,14s14-6.28,14-14   S55.72,34,48,34z M48,58c-5.514,0-10-4.486-10-10s4.486-10,10-10s10,4.486,10,10S53.514,58,48,58z"/></g></svg>