<svg xmlns="http://www.w3.org/2000/svg" xmlns:xlink="http://www.w3.org/1999/xlink" version="1.1" x="0px" y="0px" viewBox="0 0 96 120" fill="white" enable-background="new 0 0 96 96" xml:space="preserve"><g><path d="M60,46c-5.514,0-10-4.486-10-10c0-1.104-0.896-2-2-2c-7.72,0-14,6.28-14,14s6.28,14,14,14c7.72,0,14-6.28,14-14   C62,46.896,61.104,46,60,46z M48,58c-5.514,0-10-4.486-10-10c0-4.888,3.525-8.969,8.168-9.832   c0.934,5.986,5.677,10.729,11.664,11.664C56.969,54.475,52.889,58,48,58z"/></g></svg>