<svg xmlns="http://www.w3.org/2000/svg" xmlns:xlink="http://www.w3.org/1999/xlink" version="1.1" x="0px" y="0px" viewBox="0 0 96 120" enable-background="new 0 0 96 96" xml:space="preserve" fill="white"><g><g><path d="M66,40c-0.507,0-1.112,0.079-1.688,0.184C62.218,33.012,55.663,28,48,28c-7.664,0-14.218,5.012-16.312,12.184    C31.112,40.079,30.507,40,30,40c-6.065,0-11,4.935-11,11s4.935,11,11,11h36c6.065,0,11-4.935,11-11S72.065,40,66,40z M66,58H30    c-3.86,0-7-3.141-7-7s3.14-7,7-7c0.277,0,0.723,0.068,1.194,0.162V46c0,1.104,0.896,2,2,2s2-0.896,2-2v-3.226    C36.27,36.524,41.632,32,48,32c6.371,0,11.735,4.529,12.808,10.784V46c0,1.104,0.896,2,2,2c1.105,0,2-0.896,2-2v-1.837    C65.278,44.069,65.726,44,66,44c3.859,0,7,3.141,7,7S69.859,58,66,58z"/></g></g></svg>