<svg xmlns="http://www.w3.org/2000/svg" xmlns:xlink="http://www.w3.org/1999/xlink" version="1.1" x="0px" y="0px" viewBox="0 0 96 120" enable-background="new 0 0 96 96" xml:space="preserve" fill="white"><g><g><path d="M66,40c-0.508,0-1.112,0.079-1.689,0.184C62.218,33.012,55.663,28,48,28c-7.664,0-14.219,5.012-16.312,12.184    C31.112,40.079,30.507,40,30,40c-6.065,0-11,4.935-11,11s4.935,11,11,11h7v16c0,1.104,0.895,2,2,2c1.104,0,2-0.896,2-2V62h14v16    c0,1.104,0.895,2,2,2c1.104,0,2-0.896,2-2V62h7c6.065,0,11-4.935,11-11S72.065,40,66,40z M66,58H30c-3.859,0-7-3.141-7-7    s3.141-7,7-7c0.277,0,0.723,0.068,1.193,0.162V46c0,1.104,0.896,2,2,2c1.104,0,2-0.896,2-2v-3.219C36.266,36.528,41.629,32,48,32    c6.37,0,11.733,4.528,12.807,10.782V46c0,1.104,0.895,2,2,2c1.105,0,2-0.896,2-2v-1.837C65.277,44.069,65.726,44,66,44    c3.859,0,7,3.141,7,7S69.859,58,66,58z"/><path d="M48,64c-1.105,0-2,0.896-2,2v18c0,1.104,0.895,2,2,2c1.104,0,2-0.896,2-2V66C50,64.896,49.104,64,48,64z"/></g></g></svg>