<svg xmlns="http://www.w3.org/2000/svg" xmlns:xlink="http://www.w3.org/1999/xlink" version="1.1" x="0px" y="0px" fill="white" viewBox="0 0 96 120" enable-background="new 0 0 96 96" xml:space="preserve"><g><path d="M59.999,18c1.104,0,2-0.896,2-2v-4c0-1.104-0.896-2-2-2c-1.105,0-2,0.896-2,2v4C57.999,17.104,58.894,18,59.999,18z    M72.555,42.188c0.945-1.915,1.444-4.021,1.444-6.188c0-7.72-6.28-14-14-14c-4.601,0-8.895,2.281-11.496,6.021   C48.335,28.016,48.169,28,48,28c-7.664,0-14.219,5.012-16.312,12.184C31.112,40.079,30.507,40,30,40c-6.065,0-11,4.935-11,11   s4.935,11,11,11h11.263l-3.927,5.891c-0.409,0.613-0.447,1.402-0.1,2.053C37.585,70.594,38.263,71,39,71h2.263l-3.927,5.891   c-0.612,0.919-0.364,2.161,0.555,2.773C38.231,79.892,38.617,80,38.998,80c0.646,0,1.28-0.313,1.666-0.891l6-9   c0.409-0.613,0.447-1.402,0.1-2.053C46.415,67.406,45.737,67,45,67h-2.263l3.333-5h5.192l-1.927,2.891   c-0.409,0.613-0.447,1.402-0.1,2.053C49.585,67.594,50.263,68,51,68h2.263l-1.927,2.891c-0.612,0.919-0.364,2.161,0.555,2.773   C52.231,73.892,52.617,74,52.998,74c0.646,0,1.28-0.313,1.666-0.891l4-6c0.409-0.613,0.447-1.402,0.1-2.053   C58.415,64.406,57.737,64,57,64h-2.263l1.333-2H66c6.065,0,11-4.935,11-11C77,47.393,75.246,44.194,72.555,42.188z M59.999,26   c5.514,0,10,4.486,10,10c0,1.549-0.36,3.051-1.035,4.417C68.019,40.152,67.028,40,66,40c-0.508,0-1.112,0.079-1.689,0.184   c-1.608-5.511-5.855-9.735-11.211-11.401C54.938,27.03,57.396,26,59.999,26z M66,58H30c-3.859,0-7-3.141-7-7s3.141-7,7-7   c0.277,0,0.723,0.068,1.193,0.162V46c0,1.104,0.895,2,2,2c1.105,0,2-0.896,2-2v-3.219C36.266,36.528,41.629,32,48,32   c6.37,0,11.733,4.528,12.807,10.782V46c0,1.104,0.896,2,2,2s2-0.896,2-2v-1.837C65.277,44.069,65.726,44,66,44c3.859,0,7,3.141,7,7   S69.859,58,66,58z M74.142,23.857c0.512,0,1.023-0.195,1.414-0.586l2.828-2.828c0.781-0.781,0.781-2.047,0-2.828   c-0.781-0.781-2.047-0.781-2.828,0l-2.828,2.828c-0.781,0.781-0.781,2.047,0,2.828C73.118,23.662,73.63,23.857,74.142,23.857z    M44.443,23.271c0.391,0.391,0.902,0.586,1.414,0.586s1.023-0.195,1.414-0.586c0.781-0.781,0.781-2.047,0-2.828l-2.828-2.828   c-0.781-0.781-2.047-0.781-2.828,0c-0.781,0.781-0.781,2.047,0,2.828L44.443,23.271z M83.999,34h-4c-1.105,0-2,0.896-2,2   s0.895,2,2,2h4c1.104,0,2-0.896,2-2S85.103,34,83.999,34z"/></g></svg>