<svg xmlns="http://www.w3.org/2000/svg" xmlns:xlink="http://www.w3.org/1999/xlink" version="1.1" x="0px" y="0px" fill="white" viewBox="0 0 96 120" enable-background="new 0 0 96 96" xml:space="preserve"><g><g><g><path d="M69.24,40.488C72.173,37.886,74,34.094,74,30c0-1.104-0.896-2-2-2c-5.514,0-10-4.486-10-10c0-1.104-0.896-2-2-2     c-7.078,0-12.931,5.284-13.857,12.111c-6.848,0.737-12.533,5.488-14.454,12.072C31.112,40.079,30.507,40,30,40     c-6.065,0-11,4.935-11,11s4.935,11,11,11h11.263l-3.927,5.891c-0.409,0.613-0.447,1.402-0.1,2.053C37.585,70.594,38.263,71,39,71     h2.263l-3.927,5.891c-0.612,0.919-0.364,2.161,0.555,2.773C38.231,79.892,38.617,80,38.998,80c0.646,0,1.28-0.313,1.666-0.891     l6-9c0.409-0.613,0.447-1.402,0.1-2.053C46.415,67.406,45.737,67,45,67h-2.263l3.333-5h5.192l-1.927,2.891     c-0.409,0.613-0.447,1.402-0.1,2.053C49.585,67.594,50.263,68,51,68h2.263l-1.927,2.891c-0.612,0.919-0.364,2.161,0.555,2.773     C52.231,73.892,52.617,74,52.998,74c0.646,0,1.28-0.313,1.666-0.891l4-6c0.409-0.613,0.447-1.402,0.1-2.053     C58.415,64.406,57.737,64,57,64h-2.263l1.333-2H66c6.065,0,11-4.935,11-11C77,46.062,73.728,41.875,69.24,40.488z M58.168,20.168     c0.934,5.985,5.675,10.728,11.66,11.664c-0.615,3.246-2.84,6.006-5.862,7.326c-2.154-5.948-7.447-10.206-13.792-11.008     C50.933,24.111,54.126,20.92,58.168,20.168z M66,58H30c-3.859,0-7-3.141-7-7s3.141-7,7-7c0.277,0,0.723,0.068,1.193,0.162V46     c0,1.104,0.896,2,2,2s2-0.896,2-2v-3.219C36.266,36.528,41.629,32,48,32c6.37,0,11.733,4.528,12.807,10.782V46     c0,1.104,0.896,2,2,2s2-0.896,2-2v-1.837C65.277,44.069,65.726,44,66,44c3.859,0,7,3.141,7,7S69.859,58,66,58z"/></g></g></g></svg>