<svg xmlns="http://www.w3.org/2000/svg" xmlns:xlink="http://www.w3.org/1999/xlink" version="1.1" x="0px" y="0px" viewBox="0 0 96 120" enable-background="new 0 0 96 96" xml:space="preserve" fill="white"><g><g><path d="M54,46l-30.001-0.001c-1.104,0-2,0.896-2,2s0.896,2,2,2L54,50c3.859,0,7,3.141,7,7s-3.141,7-7,7c-1.105,0-2,0.896-2,2    s0.895,2,2,2c6.065,0,11-4.935,11-11S60.065,46,54,46z"/><path d="M47.999,52H24c-1.104,0-2,0.896-2,2s0.896,2,2,2h23.999c0.552,0,1,0.448,1,1s-0.448,1-1,1c-1.105,0-2,0.896-2,2    s0.895,2,2,2c2.757,0,5-2.243,5-5S50.756,52,47.999,52z"/><path d="M69,38c-1.104,0-2,0.896-2,2s0.896,2,2,2c0.552,0,1,0.448,1,1s-0.448,1-1,1h-4c-1.105,0-2,0.896-2,2s0.895,2,2,2h4    c2.757,0,5-2.243,5-5S71.757,38,69,38z"/><path d="M23.999,43.999L57,44c4.411,0,8-3.589,8-8s-3.589-8-8-8s-8,3.589-8,8c0,1.104,0.895,2,2,2c1.104,0,2-0.896,2-2    c0-2.206,1.794-4,4-4c2.206,0,4,1.794,4,4s-1.794,4-4,4l-33.001-0.001c-1.104,0-2,0.896-2,2S22.895,43.999,23.999,43.999z"/></g></g></svg>