<?xml version="1.0" encoding="utf-8"?>
<!-- Generator: Adobe Illustrator 19.1.0, SVG Export Plug-In . SVG Version: 6.00 Build 0)  -->
<svg version="1.1" id="Layer_1" xmlns="http://www.w3.org/2000/svg" xmlns:xlink="http://www.w3.org/1999/xlink" x="0px" y="0px"
	 viewBox="0 0 160 80" style="enable-background:new 0 0 160 80;" xml:space="preserve">
<style type="text/css">
	.st0{fill:none;stroke:#FFFFFF;stroke-width:3;stroke-linecap:round;stroke-linejoin:round;stroke-miterlimit:10;}
	.st1{fill:none;stroke:#000000;stroke-width:3;stroke-linecap:round;stroke-linejoin:round;stroke-miterlimit:10;}
	.st2{fill:none;stroke:#FFFFFF;stroke-width:3;stroke-miterlimit:10;}
</style>
<g>
	<line class="st0" x1="9.5" y1="3" x2="9.5" y2="22"/>
	<polyline class="st0" points="2,10 9.5,2 17,10 	"/>
</g>
<g>
	<line class="st0" x1="49.5" y1="21" x2="49.5" y2="2"/>
	<polyline class="st0" points="42,14 49.5,22 57,14 	"/>
</g>
<g>
	<line class="st1" x1="117" y1="20.5" x2="98" y2="20.5"/>
	<polyline class="st1" points="110,28 118,20.5 110,13 	"/>
</g>
<g>
	<line class="st1" x1="123" y1="20.5" x2="142" y2="20.5"/>
	<polyline class="st1" points="130,28 122,20.5 130,13 	"/>
</g>
<circle class="st2" cx="19.5" cy="60" r="15.5"/>
<polyline class="st0" points="26.5,64.5 19.5,61.5 19.5,50.5 "/>
<rect x="44.5" y="44.5" class="st0" width="31" height="31"/>
<polyline class="st0" points="44.6,63.1 50,55.5 53.1,65.3 57.2,57 60.3,60.5 64.3,53.9 68.5,59.4 75.6,50.4 "/>
</svg>
